<?xml version="1.0" encoding="iso-8859-1"?>
<!-- Generator: Adobe Illustrator 19.0.0, SVG Export Plug-In . SVG Version: 6.00 Build 0)  -->
<svg version="1.1" id="Capa_1" xmlns="http://www.w3.org/2000/svg" xmlns:xlink="http://www.w3.org/1999/xlink" x="0px" y="0px"
	 viewBox="0 0 512 512" style="enable-background:new 0 0 512 512;" xml:space="preserve">
<circle style="fill:#9E95EB;" cx="256" cy="256" r="256"/>
<path style="fill:#5D5EBF;" d="M508.286,299.601L326.325,117.504c-3.173-3.334-6.815-6.123-10.713-8.585l-50.813-51.022
	c0,0-76.76,30.087-83.316,66.013c-0.816,4.468-0.915,8.552-0.412,12.282c-14.892-0.257-28.082,10.705-30.183,25.809l-0.279,2.008
	c-1.288,9.26,1.861,18.157,7.806,24.538l11.904,11.889c-9.811,3.812-17.359,12.684-18.905,23.797l-0.279,2.008
	c-1.285,9.236,1.845,18.111,7.76,24.488l11.95,11.939c-9.811,3.812-17.359,12.684-18.905,23.797l-0.279,2.008
	c-1.371,9.86,2.289,19.308,9,25.745l5.578,5.54H98.511l35.151,86.908L238.38,511.385C244.203,511.781,250.076,512,256,512
	C382.52,512,487.587,420.214,508.286,299.601z"/>
<path style="fill:#FFFFFF;" d="M264.799,57.898c0,0-76.76,30.087-83.316,66.013c-7.503,41.115,45.434,49.679,74.241,49.679
	s90.493,8.819,81.188-35.636C327.301,92.036,262.682,106.595,264.799,57.898z"/>
<g>
	<path style="fill:#FFF7D6;" d="M335.489,157.45c-10.8,21.93-55.9,16.19-79.49,16.14V61.66c5.41-2.43,8.8-3.76,8.8-3.76
		c-2.12,48.7,62.5,34.14,72.11,80.05C338.619,146.12,337.929,152.49,335.489,157.45z"/>
	<path style="fill:#FFF7D6;" d="M327.323,343.14l-150.125-20.879c-16.314-2.269-27.806-17.473-25.537-33.788l0.279-2.008
		c2.269-16.314,17.473-27.806,33.788-25.537l150.125,20.879c16.314,2.269,27.806,17.473,25.537,33.788l-0.279,2.008
		C358.841,333.917,343.637,345.409,327.323,343.14z"/>
</g>
<path style="fill:#FFF0AB;" d="M361.389,315.6l-0.28,2c-0.1,0.73-0.23,1.45-0.39,2.16c-3.24,15.16-17.81,25.55-33.4,23.38
	l-71.32-9.92V270.7l75.39,10.49l4.46,0.62C352.169,284.08,363.659,299.28,361.389,315.6z"/>
<path style="fill:#FFFFFF;" d="M326.797,280.909L176.672,260.03c-16.314-2.269-27.806-17.473-25.537-33.788l0.279-2.008
	c2.269-16.314,17.473-27.806,33.788-25.537l150.125,20.879c16.314,2.269,27.806,17.473,25.537,33.788l-0.279,2.008
	C358.316,271.686,343.111,283.177,326.797,280.909z"/>
<g>
	<path style="fill:#FFF7D6;" d="M360.859,253.36l-0.27,2.01c-2.06,14.78-14.71,25.6-29.2,25.82c-1.51,0.03-3.05-0.07-4.59-0.28
		l-70.8-9.85v-62.51l74.87,10.41l4.46,0.62C351.639,221.85,363.129,237.05,360.859,253.36z"/>
	<path style="fill:#FFF7D6;" d="M326.271,218.677l-150.125-20.879c-16.314-2.269-27.806-17.473-25.537-33.788l0.279-2.008
		c2.269-16.314,17.473-27.806,33.788-25.537l150.125,20.879c16.314,2.269,27.806,17.473,25.537,33.788l-0.279,2.008
		C357.79,209.454,342.585,220.946,326.271,218.677z"/>
</g>
<path style="fill:#FFF0AB;" d="M360.339,191.13l-0.28,2.01c-2.06,14.77-14.71,25.59-29.19,25.82c-1.52,0.03-3.05-0.06-4.6-0.28
	l-70.27-9.77v-62.52l78.8,10.95c0.23,0.03,0.46,0.07,0.69,0.11C351.439,160.04,362.579,175.05,360.339,191.13z"/>
<polygon style="fill:#00CB8E;" points="98.511,319.758 133.661,406.667 378.337,406.667 413.488,319.758 "/>
<polygon style="fill:#00B369;" points="413.489,319.76 378.339,406.67 255.999,406.67 255.999,319.76 "/>
<g>
</g>
<g>
</g>
<g>
</g>
<g>
</g>
<g>
</g>
<g>
</g>
<g>
</g>
<g>
</g>
<g>
</g>
<g>
</g>
<g>
</g>
<g>
</g>
<g>
</g>
<g>
</g>
<g>
</g>
</svg>
